<svg xmlns="http://www.w3.org/2000/svg" width="16" height="16" viewBox="0 0 16 16">
    <g fill="none" fill-rule="evenodd">
        <g fill="#FFF" fill-rule="nonzero">
            <g>
                <path d="M15.722 4.63c-.037-.836-.173-1.411-.367-1.91-.2-.53-.507-1.003-.91-1.397-.394-.4-.871-.71-1.394-.908C12.549.222 11.977.086 11.14.05 10.297.01 10.03 0 7.89 0 5.753 0 5.486.01 4.646.046 3.808.083 3.232.22 2.734.412c-.53.2-1.003.508-1.397.911-.4.394-.71.87-.908 1.394C.235 3.219.1 3.79.063 4.627c-.04.844-.05 1.111-.05 3.25 0 2.138.01 2.406.047 3.246.037.837.172 1.412.366 1.91.2.53.51 1.004.91 1.398.395.4.872.71 1.395.907.501.194 1.074.33 1.91.367.84.037 1.108.046 3.247.046 2.138 0 2.406-.01 3.246-.046.837-.037 1.412-.173 1.91-.367 1.06-.409 1.896-1.246 2.305-2.304.194-.502.33-1.074.366-1.91.037-.84.047-1.109.047-3.247 0-2.139-.004-2.406-.04-3.246zm-1.419 6.432c-.034.769-.163 1.184-.27 1.461-.265.686-.81 1.23-1.496 1.496-.277.107-.695.236-1.462.27-.83.037-1.08.046-3.181.046-2.102 0-2.354-.009-3.182-.046-.769-.034-1.184-.163-1.461-.27-.342-.127-.653-.327-.905-.588-.261-.256-.461-.563-.588-.905-.107-.277-.236-.695-.27-1.461-.037-.831-.046-1.08-.046-3.182s.009-2.354.046-3.181c.034-.77.163-1.185.27-1.462.127-.342.327-.652.591-.905.256-.261.563-.461.905-.587.277-.108.695-.237 1.461-.271.831-.037 1.08-.046 3.182-.046 2.105 0 2.354.009 3.181.046.77.034 1.185.163 1.462.27.341.127.652.327.905.588.261.256.461.563.587.905.108.277.237.695.271 1.462.037.83.046 1.08.046 3.181 0 2.102-.009 2.348-.046 3.179z" transform="translate(-44 -198) translate(44 198)"/>
                <path d="M7.89 3.83c-2.233 0-4.045 1.813-4.045 4.047s1.812 4.046 4.046 4.046 4.046-1.812 4.046-4.046S10.125 3.83 7.89 3.83zm0 6.672c-1.448 0-2.624-1.176-2.624-2.625 0-1.45 1.176-2.625 2.625-2.625s2.624 1.176 2.624 2.625c0 1.45-1.175 2.625-2.624 2.625zM13.042 3.67c0 .522-.423.945-.945.945s-.945-.423-.945-.944c0-.522.423-.945.945-.945s.945.423.945.945z" transform="translate(-44 -198) translate(44 198)"/>
            </g>
        </g>
    </g>
</svg>
