<svg xmlns="http://www.w3.org/2000/svg" width="22" height="17" viewBox="0 0 22 17">
    <g fill="none" fill-rule="evenodd">
        <g fill="#333E48" fill-rule="nonzero">
            <g>
                <g>
                    <path d="M19.422 0H2.578C1.157 0 0 1.157 0 2.578v11C0 15 1.157 16.156 2.578 16.156h16.844C20.843 16.156 22 15 22 13.578v-11C22 1.157 20.843 0 19.422 0zm.86 13.578c0 .474-.386.86-.86.86H2.578c-.474 0-.86-.386-.86-.86v-11c0-.474.386-.86.86-.86h16.844c.474 0 .86.386.86.86v11z" transform="translate(-1121 -29) translate(1121 17) translate(0 12)"/>
                    <path d="M20.135 1.072L11 7.866 1.865 1.072 0.839 2.451 11 10.009 21.161 2.451z" transform="translate(-1121 -29) translate(1121 17) translate(0 12)"/>
                </g>
            </g>
        </g>
    </g>
</svg>
