<svg xmlns="http://www.w3.org/2000/svg" width="20" height="24" viewBox="0 0 20 24">
    <g fill="none" fill-rule="evenodd">
        <g fill="#0062BD" fill-rule="nonzero" stroke="#0062BD" stroke-width=".2">
            <g>
                <g>
                    <path d="M18.175 3.317L9.31.031c-.073-.027-.152-.027-.225 0L.22 3.317c-.127.047-.21.168-.21.303v5.633c.007 4.617 2.466 8.883 6.457 11.205l2.569 1.488c.1.058.224.058.324 0l2.569-1.488c3.99-2.322 6.449-6.588 6.457-11.205V3.62c0-.135-.084-.256-.21-.303zm-.436 5.936c-.008 4.386-2.344 8.439-6.135 10.645l-2.407 1.394-2.406-1.394C2.999 17.692.664 13.639.656 9.253V3.845L9.197.68l8.542 3.166v5.408z" transform="translate(-548 -146) translate(312 131) translate(237 16)"/>
                    <path d="M9.085 2.332l-6.87 2.546c-.126.047-.21.168-.21.303V9.48c.006 3.768 2.012 7.25 5.27 9.145l1.76 1.02c.1.058.224.058.324 0l1.76-1.02c3.257-1.895 5.264-5.377 5.27-9.145V5.18c0-.135-.084-.256-.21-.303l-6.87-2.546c-.072-.027-.151-.027-.224 0zm6.658 3.075V9.48c-.006 3.537-1.89 6.806-4.948 8.585l-1.598.926-1.597-.926c-3.058-1.779-4.942-5.048-4.948-8.585V5.407L9.197 2.98l6.546 2.427z" transform="translate(-548 -146) translate(312 131) translate(237 16)"/>
                    <path d="M7.901 6.867v2.467H5.435c-.18 0-.324.145-.324.323v1.946c0 .179.145.324.324.324H7.9v2.466c0 .179.145.324.324.324h1.945c.179 0 .324-.145.324-.324v-2.466h2.466c.18 0 .324-.145.324-.324V9.657c0-.178-.145-.323-.324-.323h-2.466V6.867c0-.178-.145-.323-.324-.323H8.225c-.179 0-.324.145-.324.323zm.647 2.79V7.192h1.299v2.465c0 .086.034.169.094.23.061.06.143.094.23.094h2.465v1.299H10.17c-.086 0-.168.034-.229.094-.06.06-.094.143-.094.23v2.465H8.548v-2.466c0-.179-.144-.323-.323-.323H5.759V9.98h2.466c.179 0 .323-.145.323-.324h0z" transform="translate(-548 -146) translate(312 131) translate(237 16)"/>
                </g>
            </g>
        </g>
    </g>
</svg>
