<svg xmlns="http://www.w3.org/2000/svg" width="16" height="16" viewBox="0 0 16 16">
    <g fill="none" fill-rule="evenodd">
        <g fill="#333E48" fill-rule="nonzero">
            <g>
                <g>
                    <g>
                        <path d="M7.046 0C3.161 0 0 3.161 0 7.046c0 3.885 3.161 7.046 7.046 7.046 3.885 0 7.046-3.16 7.046-7.046C14.092 3.161 10.932 0 7.046 0zm0 12.791c-3.168 0-5.745-2.577-5.745-5.745s2.577-5.745 5.745-5.745 5.745 2.577 5.745 5.745-2.577 5.745-5.745 5.745z" transform="translate(-929 -29) translate(264 17) translate(634) translate(31 12)"/>
                        <path d="M15.81 14.89l-3.73-3.73c-.254-.253-.665-.253-.92 0-.253.255-.253.667 0 .92l3.73 3.73c.127.126.293.19.46.19.166 0 .332-.064.46-.19.254-.254.254-.666 0-.92z" transform="translate(-929 -29) translate(264 17) translate(634) translate(31 12)"/>
                    </g>
                </g>
            </g>
        </g>
    </g>
</svg>
