<svg xmlns="http://www.w3.org/2000/svg" width="47" height="44" viewBox="0 0 47 44">
    <g fill="none" fill-rule="evenodd">
        <g fill="#FFD500" fill-rule="nonzero">
            <g>
                <g>
                    <g>
                        <path stroke="#FFD500" d="M38.4 16.04C38.4 7.16 31.24 0 22.4 0s-16 7.16-16 16v.04C2.84 16.24 0 19.2 0 22.8v.8c0 3.76 3.04 6.8 6.8 6.8h.36L10 34.92c2 3.2 5.4 5.08 9.16 5.08h.56c.36 1.36 1.6 2.4 3.08 2.4 1.76 0 3.2-1.44 3.2-3.2 0-1.76-1.44-3.2-3.2-3.2-1.48 0-2.72 1.04-3.08 2.4h-.56c-3.2 0-6.12-1.64-7.8-4.36L9.04 30.4h.56c.88 0 1.6-.72 1.6-1.6V17.6c0-.88-.72-1.6-1.6-1.6H8C8 8.04 14.44 1.6 22.4 1.6S36.8 8.04 36.8 16h-1.6c-.88 0-1.6.72-1.6 1.6v11.2c0 .88.72 1.6 1.6 1.6H38c3.76 0 6.8-3.04 6.8-6.8v-.8c0-3.6-2.84-6.56-6.4-6.76zM22.8 37.6c.88 0 1.6.72 1.6 1.6 0 .88-.72 1.6-1.6 1.6-.88 0-1.6-.72-1.6-1.6 0-.88.72-1.6 1.6-1.6zm-13.2-20v11.2H6.8c-2.88 0-5.2-2.32-5.2-5.2v-.8c0-2.88 2.32-5.2 5.2-5.2h2.8zm33.6 6c0 2.88-2.32 5.2-5.2 5.2h-2.8V17.6H38c2.88 0 5.2 2.32 5.2 5.2v.8z" transform="translate(-39 -2657) translate(0 781) translate(0 1743) translate(40 134)"/>
                        <path d="M29.04 6.04c-.08-.04-.2-.12-.32-.2-.12-.08-.24-.16-.32-.2-.36-.24-.88-.12-1.08.28-.2.4-.12.84.28 1.08.08.04.2.12.32.2.12.08.24.16.36.2.12.08.28.12.4.12.28 0 .52-.12.68-.4.2-.36.08-.84-.32-1.08zM22.4 4c-3.4 0-6.6 1.48-8.8 4.04-.28.32-.24.84.08 1.12.16.12.32.2.52.2.24 0 .44-.08.6-.28 1.92-2.2 4.68-3.48 7.6-3.48.72 0 1.44.08 2.16.24.44.08.84-.2.96-.6.12-.4-.2-.84-.6-.96-.84-.2-1.68-.28-2.52-.28z" transform="translate(-39 -2657) translate(0 781) translate(0 1743) translate(40 134)"/>
                    </g>
                </g>
            </g>
        </g>
    </g>
</svg>
