<svg xmlns="http://www.w3.org/2000/svg" width="22" height="22" viewBox="0 0 22 22">
    <g fill="none" fill-rule="evenodd">
        <g fill="#333E48" fill-rule="nonzero">
            <g>
                <path d="M22 11c0-2.938-1.144-5.7-3.222-7.778C16.701 1.144 13.938 0 11 0 8.062 0 5.3 1.144 3.222 3.222 1.144 5.299 0 8.062 0 11v6.016c0 1.421 1.157 2.578 2.578 2.578h.133C2.799 20.935 3.919 22 5.282 22h2.195V10.441H5.282c-1.26 0-2.31.91-2.534 2.106h-.17c-.301 0-.59.052-.86.148V11c0-5.118 4.164-9.281 9.282-9.281S20.281 5.882 20.281 11v1.695c-.269-.096-.558-.148-.86-.148h-.17c-.222-1.197-1.273-2.106-2.533-2.106h-2.195V22h2.195c1.363 0 2.483-1.065 2.571-2.406h.133c1.421 0 2.578-1.157 2.578-2.578v-1.891c0-.058-.003-.115-.006-.172H22V11zM4.423 13.02c0-.474.385-.86.86-.86h.475v8.121h-.476c-.474 0-.86-.385-.86-.86V13.02zm-1.845 1.246h.126v3.609h-.126c-.474 0-.86-.386-.86-.86v-1.89c0-.474.386-.86.86-.86zm15 5.156c0 .474-.386.86-.86.86h-.476V12.16h.476c.474 0 .86.386.86.86v6.402zm2.703-2.406c0 .473-.385.859-.86.859h-.125v-3.61h.126c.474 0 .86.386.86.86v1.89z" transform="translate(-27 -792) translate(27 792)"/>
            </g>
        </g>
    </g>
</svg>
