<svg xmlns="http://www.w3.org/2000/svg" width="18" height="22" viewBox="0 0 18 22">
    <g fill="none" fill-rule="evenodd">
        <g fill="#333E48" fill-rule="nonzero">
            <g>
                <path d="M11.336 0H2.58C1.159 0 .002 1.157.002 2.578v16.844C.002 20.843 1.16 22 2.581 22h12.284c1.421 0 2.578-1.157 2.578-2.578V6.138L11.336 0zm.478 2.918l2.702 2.716h-1.843c-.474 0-.859-.386-.859-.86V2.918zm3.91 16.504c0 .474-.385.86-.86.86H2.582c-.474 0-.86-.386-.86-.86V2.578c0-.474.386-.86.86-.86h7.514v3.056c0 1.422 1.157 2.578 2.578 2.578h3.051v12.07z" transform="translate(-29 -252) translate(29 252)"/>
            </g>
        </g>
    </g>
</svg>
