<svg xmlns="http://www.w3.org/2000/svg" width="22" height="26" viewBox="0 0 22 26">
    <g fill="none" fill-rule="evenodd">
        <g fill="#FFF" fill-rule="nonzero">
            <g>
                <g>
                    <g>
                        <g>
                            <path d="M15.749 0c-1.365.094-2.96.968-3.89 2.106-.848 1.032-1.545 2.564-1.273 4.054 1.491.046 3.032-.848 3.925-2.005.835-1.077 1.467-2.6 1.238-4.155z" transform="translate(-50 -2841) translate(0 781) translate(0 1743) translate(40 310) translate(10 7)"/>
                            <path d="M21.143 8.589c-1.31-1.643-3.152-2.597-4.892-2.597-2.296 0-3.267 1.1-4.862 1.1-1.645 0-2.894-1.097-4.88-1.097-1.95 0-4.027 1.192-5.344 3.23-1.851 2.871-1.534 8.268 1.466 12.865 1.073 1.644 2.507 3.494 4.382 3.51 1.669.016 2.14-1.07 4.4-1.082 2.26-.012 2.69 1.096 4.355 1.079 1.877-.015 3.389-2.064 4.463-3.709.77-1.18 1.056-1.773 1.652-3.104-4.34-1.653-5.036-7.826-.74-10.195z" transform="translate(-50 -2841) translate(0 781) translate(0 1743) translate(40 310) translate(10 7)"/>
                        </g>
                    </g>
                </g>
            </g>
        </g>
    </g>
</svg>
