<svg xmlns="http://www.w3.org/2000/svg" width="14" height="9" viewBox="0 0 14 9">
    <g fill="none" fill-rule="evenodd">
        <g fill="#333E48" fill-rule="nonzero" stroke="#333E48" stroke-width=".5">
            <path d="M356.063 136.25c.104 0 .182-.026.234-.078h0l3.125-3.438c.052-.052.078-.13.078-.234 0-.104-.026-.182-.078-.234-.026-.026-1.068-1.172-3.125-3.438-.156-.156-.313-.156-.469 0-.156.156-.156.313 0 .469h0l2.617 2.89h-11.132c-.209 0-.313.105-.313.313 0 .208.104.313.313.313h11.132l-2.617 2.89c-.156.156-.156.313 0 .469.052.052.13.078.235.078z" transform="translate(-346 -128)"/>
        </g>
    </g>
</svg>
