<svg xmlns="http://www.w3.org/2000/svg" width="22" height="22" viewBox="0 0 22 22">
    <g fill="none" fill-rule="evenodd">
        <g fill="#0062BD" fill-rule="nonzero">
            <g>
                <g>
                    <path d="M20.512 5.49L17.82 3.936c-.202-.117-.46-.048-.578.155-.116.202-.047.46.155.578l2.692 1.554c.336.194.576.507.677.882.1.375.049.767-.145 1.103l-2.136 3.7V8.89c0-.742-.604-1.345-1.345-1.345-.176 0-.344.034-.499.096V6.493c0-.741-.603-1.345-1.344-1.345-.184 0-.36.037-.519.105-.11-.631-.662-1.112-1.324-1.112s-1.214.48-1.325 1.112c-.16-.068-.335-.105-.519-.105-.741 0-1.344.604-1.344 1.345v5.12l-.47-.733c-.37-.577-1.082-.832-1.733-.622-.779.251-1.213 1.064-.988 1.85l.035.123c.185.647.437 1.27.749 1.86l-2.915-1.683c-.694-.4-.933-1.29-.532-1.985l5.011-8.68c.195-.336.508-.577.883-.677.375-.1.766-.049 1.103.145l5.98 3.464c.202.117-.265-.39-.149-.592.117-.203.774-.032.572-.148L11.832.478C11.3.171 10.68.09 10.087.248c-.593.16-1.09.54-1.396 1.072l-.268.463C7.39 1.484 6.321 1.322 5.241 1.3h-.009c-.23 0-.418.184-.423.415-.004.233.181.426.415.431.936.019 1.863.151 2.763.394L5.184 7.393c-.608-.21-1.242-.321-1.89-.333-.234-.005-.427.182-.43.416-.005.233.181.426.415.43.503.01.997.088 1.473.236L3.68 10c-.634 1.098-.256 2.507.842 3.141l4.375 2.526c.505.627 1.088 1.192 1.736 1.677v4.064c0 .234.189.424.423.424.233 0 .423-.19.423-.424V17.13c0-.137-.066-.265-.177-.344-1.628-1.164-2.827-2.864-3.377-4.787l-.035-.123c-.099-.346.091-.703.433-.813.286-.092.6.02.762.273l1.249 1.95c.1.158.294.23.475.178.18-.053.304-.218.304-.406v-1.753-4.812c0-.275.224-.498.498-.498.275 0 .499.223.499.498v3.973c0 .234.19.423.423.423.234 0 .423-.189.423-.423v-4.98c0-.275.224-.499.499-.499s.498.224.498.499v4.98c0 .234.19.423.423.423.234 0 .423-.189.423-.423V6.493c0-.275.224-.498.499-.498s.498.223.498.498v3.973c0 .234.19.423.423.423.234 0 .423-.189.423-.423V8.891c0-.275.224-.499.499-.499s.498.224.498.499v3.468c0 1.662-.674 3.288-1.851 4.461-.08.08-.124.187-.124.3v4.288c0 .234.189.424.423.424.233 0 .423-.19.423-.424v-4.116c.92-.962 1.54-2.138 1.815-3.413l3.03-5.248c.307-.532.388-1.152.23-1.745-.16-.593-.54-1.089-1.072-1.396zM.423 3.051c.054 0 .11-.01.162-.032.851-.353 1.746-.603 2.66-.742.23-.036.389-.252.354-.483-.036-.23-.252-.389-.483-.354-.98.15-1.94.418-2.855.797-.216.09-.318.337-.229.553.068.163.225.261.391.261z" transform="translate(-746 -147) translate(312 131) translate(434 16)"/>
                    <path d="M.423 5.81c.054 0 .109-.01.161-.032 1.32-.543 2.77-.738 4.194-.563.232.029.443-.136.471-.368.029-.232-.136-.443-.368-.472-1.567-.193-3.164.022-4.619.62-.216.09-.319.337-.23.553.067.163.225.262.391.262zM1.052 7.439c-.286.105-.566.233-.833.38-.204.112-.28.37-.167.574.078.14.222.22.372.22.068 0 .138-.017.203-.053.23-.126.471-.236.717-.327.22-.08.332-.324.251-.543-.08-.22-.324-.332-.543-.251zM15.96 3.774c.112 0 .22-.046.3-.124.078-.079.123-.188.123-.3 0-.111-.045-.22-.124-.299-.079-.079-.187-.124-.299-.124-.11 0-.22.045-.299.124-.079.08-.124.188-.124.3 0 .111.045.22.124.299.079.078.188.124.3.124z" transform="translate(-746 -147) translate(312 131) translate(434 16)"/>
                </g>
            </g>
        </g>
    </g>
</svg>
