<svg xmlns="http://www.w3.org/2000/svg" width="22" height="22" viewBox="0 0 22 22">
    <g fill="none" fill-rule="evenodd">
        <g fill="#333E48" fill-rule="nonzero">
            <g>
                <path d="M18.778 3.222C16.701 1.144 13.938 0 11 0 8.062 0 5.3 1.144 3.222 3.222 1.144 5.299 0 8.062 0 11c0 2.938 1.144 5.7 3.222 7.778C5.299 20.856 8.062 22 11 22c2.938 0 5.7-1.144 7.778-3.222C20.856 16.701 22 13.938 22 11c0-2.938-1.144-5.7-3.222-7.778zm1.476 7.063l-4.377 4.377-1.217-1.217 5.203-5.203c.204.653.337 1.337.39 2.043zm-1.118-3.747l-5.692 5.691-1.245-1.246 5.925-5.925c.383.458.722.953 1.012 1.48zm-7.277-4.78c.648.06 1.277.187 1.88.373l-1.88 1.88V1.758zm0 4.683l3.587-3.586c.518.284 1.007.616 1.46.99l-5.047 5.047V6.44zM11 20.28c-5.118 0-9.281-4.163-9.281-9.281 0-4.828 3.705-8.806 8.422-9.241v9.597l6.783 6.783c-1.608 1.337-3.674 2.142-5.924 2.142zm7.14-3.357l-1.048-1.047 2.998-2.998c-.313 1.515-.996 2.897-1.95 4.045z" transform="translate(-27 -201) translate(27 201)"/>
            </g>
        </g>
    </g>
</svg>
