<svg xmlns="http://www.w3.org/2000/svg" width="25" height="24" viewBox="0 0 25 24">
    <g fill="none" fill-rule="evenodd">
        <g fill="#186DBE" fill-rule="nonzero" stroke="#186DBE" stroke-width=".15">
            <g>
                <g>
                    <path d="M23.03 12.325c-.171-1.18-1.098-2.108-2.279-2.278v-.699c0-1.927-1.465-3.497-3.266-3.497-1.75 0-3.214 1.522-3.267 3.393h.023l-.023.003v7.573c0 2.421-1.81 4.387-4.035 4.387S6.148 19.24 6.148 16.82v-.656c.558 0 1.153-.403 1.153-1.537v-.966c2.467-.63 4.227-2.748 4.227-5.15v-.8h-.768l-.016-5.002c-.006-.926-.67-1.716-1.581-1.881-.197-.602-.844-.93-1.446-.734-.602.196-.931.844-.734 1.446.196.602.843.93 1.446.734.322-.105.581-.348.708-.663.492.14.833.588.837 1.1l.017 5h-.768v.812c-.03 1.336-.927 2.498-2.212 2.867-.688.218-1.426.218-2.114 0-1.283-.37-2.178-1.532-2.207-2.867V7.71H1.537V2.715c.002-.52.352-.974.853-1.109.234.596.906.889 1.502.655.595-.234.888-.906.654-1.502C4.312.164 3.64-.129 3.045.105c-.323.127-.572.391-.679.721C1.446.983.771 1.78.77 2.715V7.71H0v.8c0 2.403 1.762 4.522 4.227 5.15v.967c0 1.134.596 1.537 1.153 1.537v.656c0 2.844 2.155 5.156 4.803 5.156 2.65 0 4.804-2.315 4.804-5.156V9.266c.038-1.458 1.16-2.645 2.498-2.645 1.377 0 2.498 1.223 2.498 2.728v.698c-1.47.212-2.49 1.576-2.279 3.046.213 1.47 1.577 2.49 3.047 2.279 1.47-.213 2.49-1.577 2.278-3.047zM8.07 1.562c-.212 0-.384-.172-.384-.384 0-.213.172-.385.384-.385.212 0 .384.172.384.385 0 .212-.172.384-.384.384zM3.459.793c.212 0 .384.172.384.385 0 .212-.172.384-.384.384-.213 0-.385-.172-.385-.384 0-.213.172-.385.385-.385zM.769 8.51v-.031H1.92v.044c.03 1.67 1.14 3.128 2.743 3.598.84.266 1.742.266 2.582 0 1.604-.47 2.716-1.928 2.745-3.598v-.044h.769v.03c0 2.138-1.648 4.02-3.92 4.474-.533.107-1.08.134-1.621.08-.178-.017-.355-.044-.53-.08-2.273-.455-3.92-2.336-3.92-4.473zm4.61 6.886c-.345 0-.383-.538-.383-.769v-.815c.03.004.062.005.093.008.038.005.077.008.115.011.182.016.365.027.55.027h.02c.184 0 .367-.01.547-.027l.12-.01c.03-.004.061-.005.091-.01v.816c0 .23-.038.769-.384.769H5.38zm14.988-.769c-1.061 0-1.922-.86-1.922-1.921s.86-1.921 1.922-1.921c1.061 0 1.921.86 1.921 1.921-.001 1.06-.86 1.92-1.921 1.921z" transform="translate(-894 -146) translate(312 131) translate(583 16)"/>
                    <path d="M20.367 11.553c-.637 0-1.153.516-1.153 1.153s.516 1.153 1.153 1.153 1.153-.516 1.153-1.153-.516-1.153-1.153-1.153zm0 1.537c-.212 0-.384-.172-.384-.384 0-.212.172-.384.384-.384.212 0 .384.172.384.384 0 .212-.172.384-.384.384z" transform="translate(-894 -146) translate(312 131) translate(583 16)"/>
                </g>
            </g>
        </g>
    </g>
</svg>
