<svg xmlns="http://www.w3.org/2000/svg" width="22" height="22" viewBox="0 0 22 22">
    <g fill="none" fill-rule="evenodd">
        <g fill="#333E48" fill-rule="nonzero">
            <g>
                <path d="M11 .041L0 9.594l1.126 1.297 1.03-.895v8.441c0 1.42 1.155 2.576 2.576 2.576H9.54V12.6h3.006v8.414h4.722c1.42 0 2.576-1.155 2.576-2.576v-8.44l1.03.894L22 9.594 11 .04zm7.127 18.396c0 .474-.385.86-.859.86h-3.005V10.88h-6.44v8.415H4.732c-.474 0-.859-.385-.859-.858V8.505L11 2.315l7.127 6.19v9.932z" transform="translate(-27 -99) translate(27 99)"/>
            </g>
        </g>
    </g>
</svg>
