<svg xmlns="http://www.w3.org/2000/svg" width="22" height="22" viewBox="0 0 22 22">
    <g fill="none" fill-rule="evenodd">
        <g fill="#333E48" fill-rule="nonzero">
            <g>
                <path d="M0 6.531H1.934V8.25H0z" transform="translate(-20 -354) translate(20 354)"/>
                <path d="M1.069 11.093H3.1109999999999998V12.812H1.069z" transform="translate(-20 -354) translate(20 354) rotate(-26.732 2.09 11.952)"/>
                <path d="M1.209 1.711L2.928 1.711 2.928 3.705 1.209 3.705z" transform="translate(-20 -354) translate(20 354) rotate(-63.268 2.068 2.708)"/>
                <path d="M20.066 6.531H22V8.25H20.066z" transform="translate(-20 -354) translate(20 354)"/>
                <path d="M19.051 10.932H20.77V12.974H19.051z" transform="translate(-20 -354) translate(20 354) rotate(-63.268 19.91 11.953)"/>
                <path d="M18.935 1.848L20.928 1.848 20.928 3.567 18.935 3.567z" transform="translate(-20 -354) translate(20 354) rotate(-26.732 19.931 2.708)"/>
                <path d="M18.39 7.342C18.364 3.289 15.06 0 11 0 6.941 0 3.636 3.289 3.61 7.342v.049c.013 2.951 1.254 4.584 2.35 6.026.917 1.207 1.64 2.16 1.64 3.745v2.26C7.6 20.843 8.758 22 10.18 22h1.642c1.422 0 2.578-1.157 2.578-2.578v-2.26c0-1.586.724-2.538 1.64-3.744 1.097-1.443 2.338-3.076 2.352-6.027v-.05zm-5.71 12.08c0 .474-.385.86-.859.86H10.18c-.474 0-.86-.386-.86-.86v-1.676h3.362v1.676zm1.991-7.044c-.795 1.046-1.612 2.122-1.89 3.65H9.22c-.279-1.528-1.096-2.604-1.891-3.65-1.025-1.35-1.994-2.623-2-5.01.01-3.117 2.55-5.65 5.671-5.65 3.12 0 5.66 2.533 5.672 5.65-.007 2.387-.976 3.66-2 5.01z" transform="translate(-20 -354) translate(20 354)"/>
            </g>
        </g>
    </g>
</svg>
