<svg xmlns="http://www.w3.org/2000/svg" width="24" height="24" viewBox="0 0 24 24">
    <g fill="none" fill-rule="evenodd">
        <g fill="#333E48" fill-rule="nonzero" stroke="#333E48" stroke-width=".3">
            <g>
                <path d="M18.778 3.222C16.701 1.144 13.938 0 11 0 8.062 0 5.3 1.144 3.222 3.222 1.144 5.299 0 8.062 0 11c0 2.938 1.144 5.7 3.222 7.778C5.299 20.856 8.062 22 11 22c2.938 0 5.7-1.144 7.778-3.222C20.856 16.701 22 13.938 22 11c0-2.938-1.144-5.7-3.222-7.778zm1.911 7.133h-4.756c-.037-1.505-.205-2.954-.49-4.271 1.214-.232 2.327-.558 3.277-.968 1.126 1.474 1.84 3.278 1.969 5.24zm-2.87-6.262c-.798.308-1.708.558-2.693.741-.146-.495-.31-.965-.492-1.403-.285-.687-.606-1.278-.956-1.766 1.582.454 3 1.301 4.14 2.428zM7.356 10.355c.039-1.502.21-2.872.474-4.068 1.017.132 2.084.201 3.17.201 1.086 0 2.153-.069 3.17-.2.264 1.195.435 2.565.474 4.067H7.356zm7.288 1.29c-.039 1.502-.21 2.872-.474 4.068-1.017-.132-2.084-.201-3.17-.201-1.086 0-2.153.069-3.17.2-.264-1.195-.435-2.565-.474-4.067h7.288zM11 1.289c1.025 0 2.12 1.404 2.84 3.742-.91.11-1.865.168-2.84.168-.975 0-1.93-.058-2.84-.168.72-2.338 1.815-3.742 2.84-3.742zm-2.678.376c-.35.488-.67 1.079-.956 1.766-.182.438-.346.908-.492 1.403-.985-.183-1.895-.433-2.693-.741 1.141-1.127 2.559-1.974 4.14-2.428zM3.28 5.116c.95.41 2.063.736 3.277.968-.285 1.317-.453 2.766-.49 4.271H1.31c.13-1.961.843-3.765 1.97-5.239zm-1.969 6.529h4.756c.037 1.505.205 2.954.49 4.271-1.214.232-2.327.558-3.277.968-1.126-1.474-1.84-3.278-1.969-5.24zm2.87 6.262c.798-.308 1.708-.558 2.693-.741.146.495.31.965.492 1.403.285.687.606 1.278.956 1.766-1.582-.454-3-1.301-4.14-2.428zM11 20.711c-1.025 0-2.12-1.404-2.84-3.742.91-.11 1.865-.168 2.84-.168.975 0 1.93.058 2.84.168-.72 2.338-1.815 3.742-2.84 3.742zm2.678-.376c.35-.488.67-1.079.956-1.766.182-.438.346-.908.492-1.403.985.183 1.895.433 2.693.741-1.141 1.127-2.559 1.974-4.14 2.428zm5.042-3.451c-.95-.41-2.063-.736-3.277-.968.285-1.317.453-2.766.49-4.271h4.756c-.13 1.961-.843 3.765-1.97 5.239z" transform="translate(-26 -302) translate(27 303)"/>
            </g>
        </g>
    </g>
</svg>
