<svg xmlns="http://www.w3.org/2000/svg" width="22" height="22" viewBox="0 0 22 22">
    <g fill="none" fill-rule="evenodd">
        <g fill="#333E48" fill-rule="nonzero">
            <g>
                <path d="M4.898 8.852h-2.75C.964 8.852 0 9.815 0 11v8.852C0 21.036.964 22 2.148 22h2.75c1.185 0 2.149-.964 2.149-2.148V11c0-1.185-.964-2.148-2.149-2.148zm.43 11c0 .236-.193.43-.43.43h-2.75c-.236 0-.43-.194-.43-.43V11c0-.237.194-.43.43-.43h2.75c.237 0 .43.193.43.43v8.852zM19.852 8.852h-8.809c-1.185 0-2.148.963-2.148 2.148v8.852c0 1.184.963 2.148 2.148 2.148h8.809C21.036 22 22 21.036 22 19.852V11c0-1.185-.964-2.148-2.148-2.148zm.43 11c0 .236-.194.43-.43.43h-8.809c-.237 0-.43-.194-.43-.43V11c0-.237.193-.43.43-.43h8.809c.236 0 .43.193.43.43v8.852zM19.852 0H2.148C.964 0 0 .964 0 2.148v2.75c0 1.185.964 2.149 2.148 2.149h17.704c1.184 0 2.148-.964 2.148-2.149v-2.75C22 .964 21.036 0 19.852 0zm.43 4.898c0 .237-.194.43-.43.43H2.148c-.236 0-.43-.193-.43-.43v-2.75c0-.236.194-.43.43-.43h17.704c.236 0 .43.194.43.43v2.75z" transform="translate(-20 -303) translate(20 303)"/>
            </g>
        </g>
    </g>
</svg>
