<svg xmlns="http://www.w3.org/2000/svg" width="22" height="22" viewBox="0 0 22 22">
    <g fill="none" fill-rule="evenodd">
        <g fill="#333E48" fill-rule="nonzero">
            <g>
                <path d="M17.027 8.076c-.606-1.017-3.231-5.421-3.822-6.444-.57-.989-1.45-2.05-3.192-1.465-.703.236-1.18.65-1.418 1.233-.222.547-.226 1.203-.01 2.065l.011.046 1.2 3.244.004.012c-.04.466-.658.75-1.096.75H3.051C1.7 7.518.6 8.618.6 9.968c0 .456.126.883.344 1.249C.37 11.664 0 12.363 0 13.146c0 .8.385 1.51.978 1.958-.21.36-.33.777-.33 1.222 0 .655.258 1.271.727 1.734.171.17.363.311.57.422-.148.31-.226.648-.226 1 0 1.458 1.034 2.516 2.458 2.516H22V8.076h-4.973zM15.555 20.28H4.177c-.667 0-.74-.559-.74-.798 0-.416.42-.705.797-.706h.793v-1.72H3.115c-.2 0-.389-.077-.532-.218-.14-.138-.217-.32-.217-.512 0-.402.336-.73.749-.73h1.512v-1.719H2.449c-.403 0-.73-.328-.73-.73 0-.403.327-.73.73-.73h1.89v-1.72H3.05c-.403 0-.73-.327-.73-.73 0-.403.327-.73.73-.73h5.653c1.31 0 2.758-.93 2.816-2.433.008-.21-.029-.42-.112-.645l-1.166-3.155c-.144-.594-.097-.853-.055-.955.018-.044.06-.148.373-.253.372-.124.487-.071.536-.048.12.056.324.23.62.743.606 1.05 3.232 5.455 3.839 6.473V20.28zm4.726 0h-3.008V9.795h3.008V20.28z" transform="translate(-27 -741) translate(27 741)"/>
            </g>
        </g>
    </g>
</svg>
