<svg xmlns="http://www.w3.org/2000/svg" width="17" height="16" viewBox="0 0 17 16">
    <g fill="none" fill-rule="evenodd">
        <g fill="#FFF" fill-rule="nonzero">
            <g>
                <path d="M2.003.009C.792.009 0 .804 0 1.849c0 1.022.768 1.84 1.956 1.84h.023c1.235 0 2.004-.818 2.004-1.84C3.96.804 3.214.01 2.003.01zM.209 5.144L3.75 5.144 3.75 15.795.209 15.795zM12.44 4.894c-1.91 0-3.19 1.794-3.19 1.794V5.144H5.708v10.651h3.54V9.847c0-.318.023-.636.117-.864.256-.636.838-1.295 1.816-1.295 1.282 0 1.794.977 1.794 2.409v5.698h3.54V9.688c0-3.272-1.747-4.794-4.076-4.794z" transform="translate(-148 -197) translate(148 197)"/>
            </g>
        </g>
    </g>
</svg>
