<svg xmlns="http://www.w3.org/2000/svg" width="22" height="23" viewBox="0 0 22 23">
    <g fill="none" fill-rule="evenodd">
        <g fill="#333E48" fill-rule="nonzero">
            <g>
                <path d="M9.668 0H11.386999999999999V11.859H9.668z" transform="translate(-27 -843) translate(27 843)"/>
                <path d="M17.971 4.029c-1.365-1.366-3.04-2.31-4.866-2.767v1.787c3.604 1.105 6.23 4.463 6.23 8.424 0 4.857-3.95 8.808-8.808 8.808-4.857 0-8.808-3.951-8.808-8.808 0-3.96 2.627-7.319 6.23-8.424V1.262c-1.826.457-3.5 1.401-4.866 2.767C1.095 6.017 0 8.66 0 11.473c0 2.812 1.095 5.455 3.083 7.444C5.072 20.905 7.715 22 10.527 22c2.812 0 5.456-1.095 7.444-3.083 1.989-1.989 3.084-4.632 3.084-7.444 0-2.812-1.095-5.456-3.084-7.444z" transform="translate(-27 -843) translate(27 843)"/>
            </g>
        </g>
    </g>
</svg>
