<svg xmlns="http://www.w3.org/2000/svg" width="20" height="16" viewBox="0 0 20 16">
    <g fill="none" fill-rule="evenodd">
        <g fill="#FFF" fill-rule="nonzero">
            <g>
                <path d="M6.184 15.978c7.416 0 11.472-6.144 11.472-11.473 0-.174-.003-.348-.01-.52.786-.57 1.47-1.28 2.01-2.089-.722.321-1.5.537-2.315.635.832-.5 1.471-1.29 1.773-2.23-.78.461-1.642.797-2.56.978C15.817.496 14.77.005 13.61.005c-2.227 0-4.033 1.806-4.033 4.032 0 .317.036.624.105.92C6.331 4.788 3.359 3.184 1.37.744 1.024 1.339.824 2.032.824 2.77c0 1.4.712 2.634 1.795 3.357-.662-.02-1.283-.202-1.827-.504v.051c0 1.953 1.39 3.583 3.235 3.953-.339.092-.696.142-1.063.142-.26 0-.513-.026-.758-.073.513 1.602 2.002 2.768 3.767 2.8-1.38 1.082-3.119 1.727-5.009 1.727-.325 0-.646-.019-.961-.056 1.784 1.144 3.903 1.811 6.18 1.811" transform="translate(-199 -199) translate(199 199)"/>
            </g>
        </g>
    </g>
</svg>
