<svg xmlns="http://www.w3.org/2000/svg" width="48" height="48" viewBox="0 0 48 48">
    <g fill="none" fill-rule="evenodd" opacity=".125">
        <g fill="#333E48" fill-rule="nonzero">
            <g>
                <g>
                    <path d="M39.605 29.995c-2.527-2.527-5.535-4.397-8.816-5.53 3.514-2.42 5.823-6.472 5.823-11.053C36.612 6.018 30.596 0 23.2 0 15.804 0 9.788 6.017 9.788 13.412c0 4.581 2.309 8.633 5.823 11.053-3.281 1.133-6.289 3.003-8.816 5.53C2.413 34.377 0 40.203 0 46.4h3.625c0-10.794 8.781-19.575 19.575-19.575 10.794 0 19.575 8.781 19.575 19.575H46.4c0-6.197-2.413-12.023-6.795-16.405zM23.2 23.2c-5.397 0-9.787-4.39-9.787-9.787 0-5.397 4.39-9.788 9.787-9.788 5.397 0 9.787 4.39 9.787 9.787 0 5.397-4.39 9.788-9.787 9.788z" transform="translate(-429 -344) translate(395 310) translate(34.8 34.8)"/>
                </g>
            </g>
        </g>
    </g>
</svg>
