<svg xmlns="http://www.w3.org/2000/svg" width="25" height="20" viewBox="0 0 25 20">
    <g fill="none" fill-rule="evenodd">
        <g fill="#333E48" fill-rule="nonzero">
            <g>
                <g>
                    <path d="M22.04 1.89C20.866.7 19.245.046 17.478.046c-2.474 0-4.38 1.19-5.514 3.444C10.829 1.236 8.923.045 6.449.045 4.68.045 3.06.7 1.885 1.89.652 3.139 0 4.848 0 6.833c0 2.381 1.513 5 4.497 7.786 2.705 2.525 5.67 4.297 6.237 4.627l.762.44.467.27.467-.27.761-.44c.567-.33 3.532-2.103 6.237-4.628 2.984-2.785 4.497-5.404 4.497-7.785 0-1.985-.651-3.694-1.884-4.942zm-3.887 11.362c-2.559 2.388-5.365 4.066-5.901 4.378l-.29.167-.289-.167c-.536-.312-3.342-1.99-5.9-4.378C3.218 10.87 1.868 8.65 1.868 6.833c0-2.896 1.883-4.92 4.58-4.92 1.754 0 3.004.778 3.823 2.376.658 1.282.757 2.612.758 2.625l.036-.003h1.83c0-.012.1-1.314.734-2.577.806-1.606 2.1-2.42 3.847-2.42 2.696 0 4.58 2.023 4.58 4.92 0 1.815-1.35 4.035-3.904 6.418z" transform="translate(-1173 -27) translate(1121 17) translate(52 10)"/>
                </g>
            </g>
        </g>
    </g>
</svg>
